<svg id="Bold" enable-background="new 0 0 32 32" height="512" viewBox="0 0 32 32" width="512" xmlns="http://www.w3.org/2000/svg">
    <path d="m26 32h-20c-3.314 0-6-2.686-6-6v-20c0-3.314 2.686-6 6-6h20c3.314 0 6 2.686 6 6v20c0 3.314-2.686 6-6 6z" fill="#C8E6C9" />
    <g fill="#4CAF50">
        <path d="m20.112 18.558-1.91-1.878-7.015 6.917z" />
        <path d="m20.112 13.445-8.925-5.038 7.015 6.916z" />
        <path d="m22.909 16.951c.572-.447.572-1.454-.038-1.9l-1.872-1.066-2.088 2.016 2.088 2.016z" />
    </g>
    <path d="m9.356 24 8.156-8.001-8.156-7.998v-.001c-.413.213-.69.6-.69 1.104v13.793c.001.503.277.89.69 1.103z" fill="#4CAF50" />
</svg>
